<?xml version="1.0" encoding="UTF-8"?>
<!DOCTYPE svg PUBLIC "-//W3C//DTD SVG 1.1//EN" "http://www.w3.org/Graphics/SVG/1.1/DTD/svg11.dtd">
<!-- Creator: CorelDRAW -->
<svg xmlns="http://www.w3.org/2000/svg" xml:space="preserve" width="1.35623in" height="1.1551in" style="shape-rendering:geometricPrecision; text-rendering:geometricPrecision; image-rendering:optimizeQuality; fill-rule:evenodd; clip-rule:evenodd"
viewBox="0 0 0.284715 0.242491"
 xmlns:xlink="http://www.w3.org/1999/xlink">
 <defs>
  <style type="text/css">
   <![CDATA[
    .fil0 {fill:#5A1A74}
    .fil1 {fill:white}
   ]]>
  </style>
 </defs>
 <g id="Layer_x0020_1">
  <metadata id="CorelCorpID_0Corel-Layer"/>
  <g id="_60964088">
   <path id="_61363288" class="fil0" d="M0.0572385 0.216608c0.020022,0.0123165 0.0431062,0.0202212 0.0663044,0.0237512 0.0272489,0.00414573 0.0563384,0.00248446 0.0823294,-0.00705914 0.0473602,-0.0173888 0.0788424,-0.0625297 0.0788424,-0.112974 8.26501e-007,-0.0664515 -0.0538746,-0.120326 -0.120325,-0.120326 -0.0585948,0 -0.108868,0.0423276 -0.118639,0.100136 -0.00141662,0.00838402 -0.00194145,0.0169201 -0.00157366,0.0254141 8.01706e-005,0.00183896 -0.00122983,0.00342502 -0.00304979,0.00369529l-0.0309169 0.00458708c-0.00451269,0.000669466 -0.00803772,0.0035928 -0.00952625,0.00790796 -0.0014877,0.00431268 -0.000519043,0.00878818 0.00262083,0.0120991l0.0218767 0.0230718c0.000797573,0.000842204 0.00112404,0.00190591 0.000933119,0.00304979l-0.00508298 0.0306037c-0.000728974,0.00438376 0.000916589,0.00861544 0.00441765,0.0113528 0.00352999,0.00275803 0.00797077,0.00332749 0.0120826,0.00155052l0.0164093 -0.00709716c0.00110668,-0.000478544 0.00226957,-0.000394241 0.00329609,0.000236379l1.653e-006 0z"/>
   <path id="_61542200" class="fil1" d="M0.164389 0.0119272c-0.053663,0 -0.0982222,0.0389968 -0.106878,0.0901985 -0.00164639,0.00974279 -0.00195302,0.0197071 -0.000931466,0.0295342l-0.00477883 0.00806004 -0.0398398 0.00591196 0.0271861 0.0286713 -0.00635083 0.0382174 0.024071 -0.0104106c0.0393778,0.0274704 0.0986602,0.0369644 0.144894,0.0199931 0.0414523,-0.0152241 0.0710262,-0.055045 0.0710262,-0.101777 0,-0.0598684 -0.0485305,-0.108399 -0.108398,-0.108399zm-0.0632356 0.165608c0.0507571,0.0860148 0.162811,0.0285176 0.162811,-0.0572087 2.4795e-006,-0.0549945 -0.0445815,-0.0995752 -0.0995752,-0.0995752 -0.0541201,-8.26501e-007 -0.0981569,0.0431772 -0.0995413,0.0969659l0.00688145 -0.0116032 0.0182715 0.0345643 0.0395067 0.00790135 -0.028549 0.027272 0.000195054 0.00168358z"/>
   <path id="_61363088" class="fil1" d="M0.15559 0.114244c-0.00338948,0 -0.00677979,0 -0.0101684,0 0.00472593,0.0151142 -0.0152117,0.0283556 -0.0250876,0.0152051 -0.00210675,-0.00312087 -0.0027663,-0.00762199 -0.00218857,-0.0112553 0.000579377,-0.0036333 0.00239603,-0.00639712 0.00454493,-0.00797739 0.00828236,-0.00608635 0.0193451,0.00348287 0.0048342,0.00983288 8.51296e-005,0.00165879 0.00316302,0.00242909 0.00610867,0.0020646 0.002944,-0.000365313 0.0057541,-0.00186707 0.0072418,-0.00455154 0.00149018,-0.00268613 0.00165218,-0.00655663 0.000289275,-0.00951881 -0.0013629,-0.00296053 -0.00425731,-0.00501603 -0.0080278,-0.00573509 -0.0037705,-0.000720709 -0.00842039,-0.000109098 -0.0123058,0.00170755 -0.00388538,0.001815 -0.00700459,0.00483834 -0.00868818,0.00931136 -0.0120595,0.0367107 0.0425218,0.0445963 0.0434458,0.000916589l1.653e-006 0zm-0.000449616 -0.0297615c-0.00976263,0.0041978 -0.0141695,0.00518051 -0.0246892,0.0066897 -0.00418457,-0.0133116 -0.0077253,-0.0270853 -0.017359,-0.0364917 -0.00179681,0.0123942 -0.0028101,0.0235768 -0.00719056,0.035542 -0.0174111,-0.0011976 -0.0244,0.00164804 -0.034756,0.00506893 0.0190608,0.0054359 0.0312558,0.0128331 0.0280614,0.0342667 0.0029754,0.000867826 0.00594915,0.0017373 0.00892538,0.00260596 0.000180177,-0.016854 -0.000383496,-0.0278142 -0.019093,-0.0353056 0.00951054,0.000100833 0.0150663,0.000717403 0.0228131,0.00331675 0.00173483,-0.00718725 0.0034713,-0.0143745 0.00520613,-0.0215634 0.0017373,0.00695087 0.00347296,0.0139017 0.00520943,0.0208534 0.0179012,-0.00058103 0.0220337,-0.00144968 0.0360454,-0.0123578 0.00609214,-0.00700294 0.00348783,-0.006431 -0.00317542,-0.00262497l2.4795e-006 0zm0.0656142 -0.0187045c-0.00235305,-0.000671945 -0.00615826,-0.000909977 -0.00987834,-0.000355395 -0.0037176,0.000552103 -0.00735503,0.00189682 -0.0114479,0.00398787 -0.00409035,0.00209353 -0.00863776,0.00493669 -0.0121925,0.00758315 -0.00355147,0.00264646 -0.00611611,0.00509455 -0.00871958,0.00801623 -0.0026043,0.00292333 -0.00524828,0.00631943 -0.00413333,0.00580617 0.00111743,-0.000513257 0.00599378,-0.00493669 0.0115727,-0.0090444 0.00557971,-0.00410688 0.0118619,-0.00789804 0.017316,-0.0102279 0.00545573,-0.00233073 0.010085,-0.00319938 0.0135554,-0.00343576 0.00347296,-0.000238032 0.00578716,0.000157862 0.00648968,-0.000196707 0.000704179,-0.000357048 -0.000206625,-0.00146125 -0.00256215,-0.0021332zm-0.0058665 0.0187186c-0.00119843,0.000513257 -4.2978e-005,-0.00114553 0.000410771,-0.0026853 0.000457055,-0.00154142 0.000206625,-0.00296135 -0.000496727,-0.00390935 -0.000700873,-0.000947996 -0.0018588,-0.00142323 -0.00359528,-0.00122487 -0.00173317,0.000196707 -0.00404985,0.00106619 -0.00673598,0.00225221 -0.00897084,0.00395481 -0.0187541,0.0119297 -0.0256653,0.0185996 -0.00413002,0.00398869 -0.00603346,0.00675251 -0.00793523,0.00951716 0.00983867,-0.00108437 0.0123074,0.00831129 0.00946426,0.0150473 -0.00227288,0.00538713 -0.00870223,0.00779556 -0.0144026,0.00606238 -0.00272745,-0.000829807 -0.00463088,-0.00288201 -0.00578716,-0.00588469 -0.0011538,-0.00300102 -0.00126041,-0.00795838 -0.000723188,-0.0123818 0.000538879,-0.00442178 0.00202575,-0.00932045 0.00380108,-0.0134257 0.00177946,-0.00410771 0.00384571,-0.00742446 0.00504248,-0.00841213 0.00120173,-0.000986842 0.00153068,0.000354569 0.00082898,0.00379116 -0.000700873,0.00343576 -0.00243983,0.00896588 -0.00223238,0.0102279 0.000209105,0.00126455 0.00235553,-0.0017373 0.00438045,-0.00426474 0.00202658,-0.00252744 0.00392671,-0.00458047 0.00723271,-0.00742363 0.0102982,-0.00885678 0.0190418,-0.0155225 0.0325666,-0.0192335 0.00388703,-0.00106701 0.00677813,-0.00130257 0.00897001,-0.000907498 0.00219188,0.000394241 0.0036771,0.00142075 0.00409035,0.00292251 0.000414077,0.00149845 -0.00024795,0.00347461 -0.00235553,0.00580452 -0.00210675,0.00232991 -0.00566236,0.00501521 -0.00685996,0.00552846l1.653e-006 0zm-0.0471982 0.0293135c0.000114057,-0.000809971 0.00029754,-0.00175714 0.000162821,-0.00234892 -0.000497553,-0.00220015 -0.00270844,0.00131496 -0.00297706,0.001815 -0.000647977,0.00122487 -0.00131083,0.00284482 -0.000960394,0.0044631 0.00146704,0.00675169 0.00956179,0.00440112 0.0126174,-5.86816e-005 0.0029349,-0.00428623 -0.00155134,-0.00746991 -0.00668557,-0.00313988 -0.000702526,0.000592601 -0.00152903,0.0010075 -0.00192161,0.00087857 -0.000390108,-0.000128108 -0.000352089,-0.000800053 -0.000238032,-0.0016092l2.4795e-006 0zm0.0229999 0.000305805c-0.000910804,0.000869479 -0.00140836,0.00311921 -0.00285556,0.00637811 -0.0014439,0.00325889 -0.00384158,0.00752364 -0.00646737,0.010466 -0.00262497,0.00294069 -0.00547557,0.00456063 -0.0084518,0.00509372 -0.00297623,0.000533093 -0.00607643,-1.9836e-005 -0.00801871,-0.00128438 -0.00194062,-0.00126372 -0.0027258,-0.00323823 -0.003306,-0.00448129 -0.000576071,-0.00124388 -0.000949649,-0.00175797 -0.00140505,-0.00169763 -0.000452922,5.78551e-005 -0.000991801,0.000690955 -0.000991801,0.00242909 8.26501e-007,0.00173565 0.000538879,0.00457964 0.00157118,0.00685004 0.00103395,0.00227122 0.00256298,0.00396886 0.0046284,0.00497636 0.00206873,0.0010075 0.00467138,0.00132405 0.00727486,0.000968659 0.0026043,-0.000357048 0.00520613,-0.00138274 0.00768646,-0.00306053 0.00248198,-0.00167945 0.00483586,-0.00400853 0.00681946,-0.00635827 0.00198525,-0.00235139 0.00359693,-0.00471932 0.00475403,-0.00738561 0.00115545,-0.00266629 0.0018588,-0.00562847 0.00216874,-0.00779969 0.000312417,-0.00217204 0.000226461,-0.00355478 -0.000475238,-0.00450195 -0.000700046,-0.000947996 -0.00202493,-0.00146125 -0.00293408,-0.000591775l2.4795e-006 -8.26501e-007zm0.0193401 0.00193484c-0.000807491,0.000652109 -0.00151994,0.00119843 -0.00159267,0.000513257 -0.00128604,-0.012114 0.0187566,-0.0224535 0.0184533,-0.00647646 -1.90095e-005,0.0010852 -0.000308285,0.00207369 -0.000744677,0.00219188 -0.000431433,0.000117363 -0.00101081,-0.00063062 -0.00194145,-0.00128356 -0.00394489,-0.0027663 -0.0110801,0.00255389 -0.0141745,0.00505488zm0.0486115 0.0118669c-0.000723188,0.00148192 -0.00142654,0.000139679 -0.00235635,-0.00130257 -0.00092816,-0.00144224 -0.00208609,-0.00298201 -0.00324319,-0.00377215 -0.0011571,-0.000790135 -0.00231503,-0.00082898 -0.0041325,-0.000355395 -0.00181995,0.000472758 -0.00429863,0.00146208 -0.00816335,0.00313988 -0.00386306,0.00167862 -0.009113,0.0040482 -0.0126876,0.005726 -0.00357296,0.0016778 -0.00547722,0.00266712 -0.00710956,0.00300268 -0.00163151,0.000333906 -0.00299607,1.8183e-005 -0.0036366,-0.000888488 -0.000639712,-0.000909151 -0.000557062,-0.00241008 -0.000102486,-0.00394985 0.000455402,-0.00154142 0.00128025,-0.00312004 0.00146621,-0.00400853 0.000186789,-0.000887662 -0.000267786,-0.00108602 -0.00169433,-0.000276878 -0.00142323,0.000809144 -0.00382339,0.00262662 -0.00624091,0.00422673 -0.00241669,0.00159845 -0.00485569,0.00298036 -0.0072947,0.00386968 -0.00243735,0.000888488 -0.00487635,0.00128356 -0.00681863,0.00136207 -0.00194228,7.85176e-005 -0.00338948,-0.000157035 -0.00367958,-0.000867826 -0.000285143,-0.000712444 0.000579377,-0.00189682 0.00167449,-0.00399035 0.00109842,-0.00209187 0.00241751,-0.0050929 0.00324484,-0.00770051 0.000826501,-0.00260678 0.0011571,-0.0048185 0.00128108,-0.00722692 0.000123975,-0.00240925 4.04985e-005,-0.00501603 -0.000290102,-0.00728643 -0.000327294,-0.00227205 -0.000908324,-0.00420606 -0.00161085,-0.00582518 -0.00276795,-0.00637976 -0.00848816,-0.00691699 -0.00665333,-1.90095e-005 0.000329774,0.00124306 0.000702526,0.00230924 0.000867826,0.00345477 0.000164474,0.00114553 0.000123149,0.0023704 -0.000208278,0.00312004 -0.000329774,0.000750463 -0.000949649,0.00102651 -0.00134224,0.000572765 -0.000391761,-0.000453749 -0.000558715,-0.00163978 -0.00121909,-0.00300185 -0.000659548,-0.00136207 -0.00181913,-0.00290267 -0.00250016,-0.0044631 -0.00068021,-0.00155878 -0.000889315,-0.00313822 -0.000640538,-0.00449947 0.000790135,-0.00434161 0.00595742,-0.00632852 0.00998082,-0.0046408 0.00150836,0.00063062 0.00291259,0.00181665 0.00415399,0.00367297 0.0012381,0.00185549 0.00231255,0.00438211 0.00309855,0.00687153 0.000787655,0.00248529 0.00128108,0.00493504 0.00150836,0.00779721 0.000228114,0.00286383 0.000186789,0.00614338 6.19876e-005,0.0084923 -0.000120669,0.00234892 -0.000331427,0.00377215 0.000392588,0.00400853 0.000723188,0.000237206 0.00237536,-0.000710791 0.00392588,-0.00167862 0.00155134,-0.000968659 0.00299689,-0.00195467 0.00448459,-0.00284316 0.00148853,-0.000888488 0.00301673,-0.00167945 0.00433996,-0.00227205 0.00132405,-0.000591775 0.002439,-0.000986842 0.00347048,-0.00104635 0.00103726,-5.86816e-005 0.00198443,0.000218196 0.00262662,0.000671945 0.000638885,0.000454575 0.000970312,0.00108602 0.00105131,0.00229023 8.51296e-005,0.00120586 -8.09971e-005,0.00298201 -0.000287622,0.00442426 -0.000205799,0.00144142 -0.000453749,0.00254562 0.000599213,0.0024481 0.00105544,-0.000100007 0.00341014,-0.00140092 0.00661283,-0.00313988 0.00320517,-0.0017373 0.00725254,-0.00391018 0.0104552,-0.00568633 0.00320517,-0.00177698 0.00555904,-0.00316054 0.00773026,-0.00398869 0.00216874,-0.000829807 0.00415317,-0.00110668 0.00576319,-0.000869479 0.00161416,0.000236379 0.00285225,0.000987668 0.00367793,0.0021332 0.000827327,0.0011447 0.0012414,0.00268447 0.00107693,0.00560781 -0.0001653,0.00292168 -0.000909977,0.00722692 -0.00163317,0.00870719z"/>
  </g>
 </g>
</svg>
